<svg xmlns="http://www.w3.org/2000/svg" width="100.722" height="109.07" viewBox="0 0 100.722 109.07">
  <g id="Group_5" data-name="Group 5" transform="translate(-871 -746.934)">
    <g id="Group_1878" data-name="Group 1878" transform="translate(831 704)">
      <g id="Group_3" data-name="Group 3" transform="translate(40 39.996)">
        <g id="Group_2" data-name="Group 2" transform="translate(0 2.937)">
          <path id="Path_5" data-name="Path 5" d="M58.114,9.359a.531.531,0,0,1,0-.595l2.854-5.589c.119-.357.357-.476.476-.476A15.912,15.912,0,0,1,65.13,4.959c2.14,1.546,3.21,2.378,3.21,2.735,0,.951-.951,2.973-2.854,5.945q-.357.535-.713.357A47.968,47.968,0,0,0,58.114,9.359Z" transform="translate(10.971 0.506)" fill="#c3922e"/>
          <path id="Path_6" data-name="Path 6" d="M36.27,20.808c-.713.476-1.07.713-1.07.951a.116.116,0,0,0,.119.119,5.409,5.409,0,0,0,1.308-.357c3.924-1.427,6.183-2.259,6.54-2.5a33.566,33.566,0,0,0,6.183-3.805,21.065,21.065,0,0,0,4.875-4.875,9.465,9.465,0,0,1,2.14,1.665A5.959,5.959,0,0,0,58.03,8.917a9.161,9.161,0,0,0-2.14-1.784,16.051,16.051,0,0,0,.713-4.4c0-1.427-.357-2.259-1.189-2.616-.951-.357-2.14.119-3.686,1.427a5.8,5.8,0,0,0-2.14,4.4c0,1.308,1.189,2.616,3.448,3.805A44.342,44.342,0,0,1,45.188,15.7C42.215,17.36,39.243,19.143,36.27,20.808ZM51.609,4.28q0-.357.713-.713a3.658,3.658,0,0,1,1.07-.476c.595,0,.951.357,1.07,1.189a4.367,4.367,0,0,1-.119,2.14C52.56,5.588,51.609,4.875,51.609,4.28Z" transform="translate(6.655 -0.004)" fill="#c3922e"/>
          <path id="Path_7" data-name="Path 7" d="M46.27,50.508c-.713.476-1.07.713-1.07.951a.116.116,0,0,0,.119.119,5.409,5.409,0,0,0,1.308-.357c3.924-1.427,6.183-2.259,6.54-2.5a33.567,33.567,0,0,0,6.183-3.805,21.066,21.066,0,0,0,4.875-4.875,9.465,9.465,0,0,1,2.14,1.665,6.455,6.455,0,0,0,1.546-3.092,9.161,9.161,0,0,0-2.14-1.784,16.052,16.052,0,0,0,.713-4.4c0-1.427-.357-2.259-1.189-2.616-.951-.357-2.14.119-3.686,1.427a5.8,5.8,0,0,0-2.14,4.4c0,1.308,1.189,2.616,3.448,3.805A44.342,44.342,0,0,1,55.069,45.4C52.216,46.941,49.243,48.724,46.27,50.508ZM61.609,33.861q0-.357.713-.713a3.658,3.658,0,0,1,1.07-.476c.595,0,.951.357,1.07,1.189A4.367,4.367,0,0,1,64.344,36C62.56,35.169,61.609,34.456,61.609,33.861Z" transform="translate(8.546 5.612)" fill="#c3922e"/>
          <path id="Path_8" data-name="Path 8" d="M26,22.26h.476c1.427,0,2.616-2.14,3.448-6.3l-.238-.238h-.119c-.951,2.021-1.9,2.973-2.735,2.973-1.189,0-1.665-1.189-1.665-3.448q0-2.14,2.5-10.345h-.238C24.808,9.418,23.5,13.342,23.5,16.91v1.784a6.824,6.824,0,0,0,.119,1.427C24.213,21.547,24.927,22.26,26,22.26Z" transform="translate(4.443 0.922)" fill="#c3922e"/>
          <path id="Path_9" data-name="Path 9" d="M97.147,59.336a31.908,31.908,0,0,0-6.183-4.043,45.454,45.454,0,0,1-7.729-5.708,13.1,13.1,0,0,0,2.14.238c1.427.119,2.021-.238,2.021-.832,0-.476-.476-.832-1.546-1.308l-8.086-4.4A4.935,4.935,0,0,0,76.1,42.57c-.238,0-.476.476-.595,1.308a17.449,17.449,0,0,0-.476,6.3,24.726,24.726,0,0,0-7.61,18.074,14.431,14.431,0,0,0,1.665,6.54A16.714,16.714,0,0,1,61.713,76.1v.119a8.816,8.816,0,0,1-4.518-.951c-2.021-1.308-3.329-3.924-4.043-8.086-1.665-9.513-2.973-16.885-4.043-22.236-.238-1.189-.476-2.259-.713-3.448l-4.637,4.994c1.546,5.826,2.259,9.988,2.259,12.723a5.49,5.49,0,0,1-.595,2.735,10.84,10.84,0,0,1-1.546,2.14A55.173,55.173,0,0,1,30.083,76.7c-7.61,5.232-14.626,7.848-21.165,7.848-4.637,0-7.015-2.378-7.015-7.134,0-3.329.951-8.086,2.735-14.388A5.847,5.847,0,0,0,5.113,61c0-.357-.119-.476-.238-.476-.357,0-.713.713-1.308,2.021C1.308,69.324,0,75.507,0,81.572a14.8,14.8,0,0,0,2.021,7.848,7.378,7.378,0,0,0,6.9,3.805q8.74,0,19.263-6.778A64.521,64.521,0,0,0,43.758,72.654a21.7,21.7,0,0,0,4.281-10.226c.832,5.232,1.308,8.68,1.665,10.464.832,4.994,2.5,8.323,4.994,10.226,1.784,1.308,4.162,1.9,7.253,1.9V84.9A19.856,19.856,0,0,0,69.323,83a35.616,35.616,0,0,0,7.253-4.4,41.359,41.359,0,0,0,13.2,2.021c2.854,0,4.875-.357,6.3-1.189a8.982,8.982,0,0,0,2.735-3.092,15.528,15.528,0,0,0,1.9-8.2A11.162,11.162,0,0,0,97.147,59.336ZM77.527,70.394a15.878,15.878,0,0,1-4.875-1.784c-1.9-1.189-2.854-2.5-2.854-4.162,0-1.9.951-3.924,2.973-6.183s3.686-3.448,4.994-3.448c.832,0,1.9.951,3.092,2.973a10.566,10.566,0,0,1,1.9,5.826C82.759,66.114,80.976,68.373,77.527,70.394Zm15.22,2.616A41.263,41.263,0,0,1,83.354,71.7a33.117,33.117,0,0,0,2.5-11.415,29.946,29.946,0,0,0,6.421,4.4c2.735,1.665,4.4,2.854,4.994,3.686a5.09,5.09,0,0,1,1.189,2.735C98.336,72.416,96.433,73.01,92.747,73.01Z" transform="translate(0 7.842)" fill="#c3922e"/>
          <path id="Path_10" data-name="Path 10" d="M33.712,37.736c1.308-1.427,2.973-3.21,4.994-5.47a46.748,46.748,0,0,0-6.421-11.3c-.595-.713-.951-.595-1.189.595-.238.951-.476,2.378-.832,4.281a11.971,11.971,0,0,0-.357,3.448C31.453,32.385,32.642,35.12,33.712,37.736Z" transform="translate(5.646 3.877)" fill="#c3922e"/>
          <path id="Path_11" data-name="Path 11" d="M25.639,57.866c3.329,0,8.68-3.567,10.7-5.826,4.162-4.4,9.631-11.058,13.2-14.388,4.4-4.162,14.863-12.01,20.928-12.01a8.13,8.13,0,0,1,7.491,4.518c.357.595.595.832.832.832.119,0,.238-.238.476-.832A14.166,14.166,0,0,0,80.455,24.1a6.2,6.2,0,0,0-2.5-4.875A8.607,8.607,0,0,0,72.013,17.2q-11.95,0-27.111,16.409h0c-2.378,2.5-7.848,8.561-11.058,11.891C30.039,49.662,26,51.207,22.9,51.207a5.443,5.443,0,0,1-4.637-2.14,8.193,8.193,0,0,1-1.546-5.351c0-2.973.951-6.9,2.854-12.01s2.854-8.086,2.854-8.918a.437.437,0,0,0-.119-.357c-.238,0-.595.476-1.07,1.308C16.84,32.3,14.7,39.2,14.7,44.549a14.179,14.179,0,0,0,3.329,9.631A9.613,9.613,0,0,0,25.639,57.866Z" transform="translate(2.779 3.248)" fill="#c3922e"/>
          <path id="Path_12" data-name="Path 12" d="M29.284,61.428a17.4,17.4,0,0,0,1.189-3.805,2.483,2.483,0,0,0-.595-2.259l-.238-.238c-.713-.357-1.784-.119-3.092.713h0c-.119,0-.119.119-.238.119a5.114,5.114,0,0,0-2.378,3.567c-.119,1.189.713,2.378,2.616,3.686a31.144,31.144,0,0,1-6.778,5.47,58.8,58.8,0,0,1-7.253,4.4c4.281-3.567,6.54-6.659,6.9-9.513.357-2.5-.713-3.805-3.092-4.162a4.539,4.539,0,0,0-3.21,1.308,5.274,5.274,0,0,0-2.14,3.448,4.524,4.524,0,0,0,1.189,3.567c.951,1.07,1.427,1.9,1.308,2.378a.437.437,0,0,1-.119.357c-1.308,1.308-2.735,2.735-4.281,4.043A6.894,6.894,0,0,0,8,75.7q0,.178.357.357a6.924,6.924,0,0,0,1.665-.357c7.61-2.735,13.555-6.659,17.717-11.772A5.368,5.368,0,0,1,29.4,65.708a6.335,6.335,0,0,0,1.665-2.616A8.341,8.341,0,0,0,29.284,61.428ZM13.113,65.233c-.476-.595-.713-1.07-.595-1.546,0-.357.357-.713.951-1.07a3.356,3.356,0,0,1,1.784-.476c1.9.238,2.854,1.189,2.616,2.854-.119,1.308-1.546,3.092-4.043,5.351a3.447,3.447,0,0,0,.357-3.329A8.385,8.385,0,0,0,13.113,65.233ZM28.1,60.714c-1.546-.951-2.259-1.784-2.14-2.259,0-.238.238-.476.713-.595s.832-.238.951-.238a1.042,1.042,0,0,1,.832,1.07A2.963,2.963,0,0,1,28.1,60.714Z" transform="translate(1.513 10.388)" fill="#c3922e"/>
        </g>
      </g>
    </g>
    <g id="Group_1879" data-name="Group 1879" transform="translate(904.359 848)">
      <path id="Path_1" data-name="Path 1" d="M18.5,96.341l4.284-6.871-2.021-.081a2.406,2.406,0,0,0-1.778.485h0l.647-1.374h5.254L20.6,95.291l2.506.162a3.957,3.957,0,0,0,2.344-.647h0l-.647,1.536Z" transform="translate(-18.5 -88.5)" fill="#000"/>
      <path id="Path_2" data-name="Path 2" d="M36.178,95.552a2.845,2.845,0,0,1-2.344.97,3.052,3.052,0,0,1-2.183-.808,3.033,3.033,0,0,1-.566-2.344V90.217c0-.566.081-1.374-.485-1.617h2.263c-.566.243-.485,1.132-.485,1.617V93.37c0,1.617.647,2.344,1.859,2.344a1.934,1.934,0,0,0,1.7-.808,1.571,1.571,0,0,0,.243-1.051V90.3c0-.566.081-1.374-.485-1.617h2.263c-.647.243-.566,1.132-.566,1.617v4.446c0,.566-.081,1.374.566,1.617H36.178Z" transform="translate(-20.819 -88.519)" fill="#000"/>
      <path id="Path_3" data-name="Path 3" d="M45.378,92.461v2.183c0,.566-.081,1.374.485,1.617H43.6c.566-.243.485-1.132.485-1.617V90.117c0-.566.081-1.374-.485-1.617h2.263c-.566.243-.485,1.132-.485,1.617v1.455h4.284V90.117c0-.566.081-1.455-.485-1.617h2.263c-.647.243-.566,1.132-.566,1.617v4.527c0,.566-.081,1.374.566,1.617H49.178c.647-.243.485-1.132.485-1.617V92.461Z" transform="translate(-23.31 -88.5)" fill="#000"/>
      <path id="Path_4" data-name="Path 4" d="M57.785,90.117c0-.566.081-1.455-.485-1.617h2.91c2.748,0,4.365,1.455,4.365,3.88,0,2.344-1.778,3.961-4.446,3.961H57.3c.566-.4.485-.97.485-1.7ZM59,95.371a3.316,3.316,0,0,0,.889.081c1.778,0,3.4-.889,3.4-2.991a2.819,2.819,0,0,0-3.153-3.153,4.733,4.733,0,0,0-1.051.162v5.9Z" transform="translate(-25.935 -88.5)" fill="#000"/>
    </g>
  </g>
</svg>
